<svg id="visual" viewBox="0 0 1920 1080" width="1920" height="1080" xmlns="http://www.w3.org/2000/svg" xmlns:xlink="http://www.w3.org/1999/xlink" version="1.1"><path d="M0 640L106.7 652.2C213.3 664.3 426.7 688.7 640 731.5C853.3 774.3 1066.7 835.7 1280 828.8C1493.3 822 1706.7 747 1813.3 709.5L1920 672L1920 1081L1813.3 1081C1706.7 1081 1493.3 1081 1280 1081C1066.7 1081 853.3 1081 640 1081C426.7 1081 213.3 1081 106.7 1081L0 1081Z" fill="#fafafa"></path><path d="M0 721L106.7 738.2C213.3 755.3 426.7 789.7 640 828.3C853.3 867 1066.7 910 1280 894.7C1493.3 879.3 1706.7 805.7 1813.3 768.8L1920 732L1920 1081L1813.3 1081C1706.7 1081 1493.3 1081 1280 1081C1066.7 1081 853.3 1081 640 1081C426.7 1081 213.3 1081 106.7 1081L0 1081Z" fill="#ededed"></path><path d="M0 880L106.7 887.3C213.3 894.7 426.7 909.3 640 908.8C853.3 908.3 1066.7 892.7 1280 889.7C1493.3 886.7 1706.7 896.3 1813.3 901.2L1920 906L1920 1081L1813.3 1081C1706.7 1081 1493.3 1081 1280 1081C1066.7 1081 853.3 1081 640 1081C426.7 1081 213.3 1081 106.7 1081L0 1081Z" fill="#e0e0e0"></path><path d="M0 1020L106.7 1010C213.3 1000 426.7 980 640 971.5C853.3 963 1066.7 966 1280 979.2C1493.3 992.3 1706.7 1015.7 1813.3 1027.3L1920 1039L1920 1081L1813.3 1081C1706.7 1081 1493.3 1081 1280 1081C1066.7 1081 853.3 1081 640 1081C426.7 1081 213.3 1081 106.7 1081L0 1081Z" fill="#d3d3d3"></path></svg>